<svg width="123" height="123" viewBox="0 0 123 123" fill="none" xmlns="http://www.w3.org/2000/svg">
<circle cx="61.5" cy="61.5" r="61.5" fill="#559F35"/>
<circle cx="61.5" cy="59.5" r="59.5" fill="#6EBE4B"/>
<path d="M60.6992 90.6641V90.7226" stroke="white" stroke-width="12" stroke-linecap="round" stroke-linejoin="round"/>
<path d="M60.7006 70.1937C60.5929 68.2946 61.1052 66.4118 62.1604 64.8291C63.2156 63.2463 64.7565 62.0493 66.551 61.4183C68.7499 60.5773 70.7237 59.2375 72.3169 57.5041C73.91 55.7708 75.0791 53.6913 75.732 51.4293C76.3849 49.1674 76.5039 46.7848 76.0795 44.4691C75.6552 42.1534 74.6991 39.9678 73.2865 38.0843C71.874 36.2009 70.0435 34.6711 67.9392 33.6153C65.8349 32.5595 63.5143 32.0066 61.16 32.0001C58.8058 31.9935 56.4821 32.5336 54.372 33.5777C52.2619 34.6218 50.423 36.1414 49 38.017" stroke="white" stroke-width="11" stroke-linecap="round" stroke-linejoin="round"/>
</svg>
